# xmcd
#
# Track frame offsets: 
#        150
#        26343
#        55735
#        79243
#        119058
#        137403
#        143878
#        155285
#        198858
#        230035
#        271590
#
# Disc length: 3916 seconds
#
# Revision: 0
# Processed by: cddbd v1.5.2PL0 Copyright (c) Steve Scherf et al.
# Submitted via: ExactAudioCopy v0.99pb5
#
DISCID=8e0f4a0b
DTITLE=Eric Clapton  - E.C. Is Here - Disc 07 (DJ Copy 69)
DYEAR=1900
DGENRE=
TTITLE0=Smile
TTITLE1=Let It Grow
TTITLE2=Can't Find My Way Home
TTITLE3=Tell The Truth
TTITLE4=The Sky Is Crying
TTITLE5=Have You Ever Loved A Woman
TTITLE6=Ramblin' On My Mind
TTITLE7=Badge
TTITLE8=Little Rachel
TTITLE9=I Shot The Sheriff
TTITLE10=Better Make It Through Today
EXTD=
EXTT0=
EXTT1=
EXTT2=
EXTT3=
EXTT4=
EXTT5=
EXTT6=
EXTT7=
EXTT8=
EXTT9=
EXTT10=
PLAYORDER=
